<svg version="1.1" id="Layer_1" xmlns="http://www.w3.org/2000/svg" xmlns:xlink="http://www.w3.org/1999/xlink" x="0px" y="0px"
	 width="100%" viewBox="0 0 512 512" enable-background="new 0 0 512 512" xml:space="preserve">
<path fill="#000000" opacity="1.000000" stroke="none" 
	d="
M1.000000,190.000000 
	C1.000000,126.666664 1.000000,63.833332 1.000000,1.000000 
	C171.666672,1.000000 342.333344,1.000000 513.000000,1.000000 
	C513.000000,171.666672 513.000000,342.333344 513.000000,513.000000 
	C342.333344,513.000000 171.666672,513.000000 1.000000,513.000000 
	C1.000000,405.500000 1.000000,298.000000 1.000000,190.000000 
M481.006165,186.991440 
	C481.006165,186.991440 481.070374,186.998932 481.017426,186.249069 
	C480.371735,184.455231 479.726044,182.661377 479.059479,180.957428 
	C479.059479,180.957428 479.149872,180.976105 479.069702,180.192337 
	C473.832550,163.811859 466.548553,148.353775 457.279877,133.912964 
	C451.962891,125.629036 445.827667,117.870262 439.904602,109.235275 
	C438.307037,107.477036 436.709503,105.718788 434.890717,103.306870 
	C423.358917,92.344040 412.440186,80.630371 400.150269,70.596046 
	C382.156036,55.904270 361.868500,44.858692 339.762146,37.291973 
	C317.572876,29.696884 295.004883,23.552118 271.546753,22.205135 
	C254.217133,21.210060 236.860245,21.949537 219.585724,24.848722 
	C200.752014,28.009583 182.581039,33.128048 165.038986,40.543568 
	C142.595917,50.030884 122.155174,62.715355 103.701454,78.704407 
	C82.198372,97.335548 64.319160,118.803993 50.389267,144.358261 
	C49.712223,145.668655 48.908710,146.929916 48.377556,148.296982 
	C42.586437,163.201996 36.837933,178.123566 30.883329,193.340454 
	C30.883329,193.340454 30.916466,193.696304 30.341017,194.232864 
	C28.595383,203.155289 26.849751,212.077728 24.758659,221.739105 
	C23.875053,230.290283 22.062584,238.867996 22.305822,247.387009 
	C22.777536,263.907928 24.405169,280.395874 25.422644,297.447632 
	C25.665812,297.953430 25.908978,298.459198 26.142319,299.707428 
	C26.249567,300.439148 26.356813,301.170898 26.323839,302.464905 
	C26.590157,302.965515 26.856476,303.466125 27.143717,304.753479 
	C27.571733,306.802216 27.999750,308.850922 28.292437,311.471619 
	C28.577061,311.969482 28.861685,312.467346 29.169294,313.620331 
	C29.254047,314.047333 29.338800,314.474365 29.327141,315.590363 
	C29.882069,317.060028 30.436995,318.529724 31.069410,320.644135 
	C31.171158,321.064178 31.272905,321.484253 31.276361,322.656342 
	C32.876827,327.504974 34.016418,332.569153 36.164303,337.161774 
	C42.572014,350.862793 49.375263,364.378784 55.997631,377.998260 
	C55.997631,377.998260 56.032772,377.978912 56.060173,378.656799 
	C56.916016,379.951019 57.771858,381.245209 58.825371,382.808960 
	C58.825371,382.808960 59.122078,382.962921 59.144409,383.591797 
	C59.626667,384.251709 60.108921,384.911621 60.786667,385.835175 
	C60.786667,385.835175 61.084126,385.973938 61.111137,386.605835 
	C61.757423,387.379028 62.403709,388.152222 63.006023,388.983673 
	C63.006023,388.983673 63.073460,388.955750 63.134647,389.642639 
	C64.764854,391.750122 66.395065,393.857574 67.998291,395.999115 
	C67.998291,395.999115 68.035233,395.977051 68.110596,396.666321 
	C73.238892,402.990204 77.947372,409.716217 83.560181,415.575989 
	C141.814743,476.393890 212.939484,501.640320 296.026031,488.437592 
	C360.981964,478.115906 412.524841,444.354492 450.421082,390.404297 
	C461.997772,373.923401 471.480042,356.243774 477.968018,336.269928 
	C479.259552,332.167511 480.551056,328.065094 482.291901,323.587494 
	C482.402222,323.038361 482.512543,322.489258 482.871155,321.197540 
	C483.810669,317.233337 484.750183,313.269135 485.845886,309.092346 
	C485.845886,309.092346 485.748260,308.847260 486.113922,308.338074 
	C486.267120,307.546234 486.420319,306.754364 486.808563,305.184052 
	C487.198853,302.786957 487.589142,300.389893 488.393127,297.602692 
	C488.441925,297.055756 488.490753,296.508820 488.772095,295.180603 
	C488.840759,294.096802 488.909393,293.012970 489.271515,291.766693 
	C489.454071,291.545288 489.429474,291.350037 489.593964,290.374786 
	C489.749573,288.297272 489.905182,286.219727 490.370178,283.884827 
	C490.548706,283.615997 490.519867,283.371674 490.634064,282.273224 
	C491.053528,270.516327 491.964783,258.749573 491.729797,247.005753 
	C491.555939,238.318008 489.889740,229.660126 488.984924,220.147995 
	C488.347839,216.901016 487.710785,213.654053 487.169678,210.183624 
	C487.169678,210.183624 486.970947,210.043472 486.999817,209.199188 
	C485.691406,204.029373 484.382996,198.859543 483.113708,193.340271 
	C483.113708,193.340271 482.914459,193.050537 482.974060,192.298553 
	C482.325714,190.509369 481.677399,188.720169 481.006165,186.991440 
z"/>
<path fill="#5D94F1" opacity="1.000000" stroke="none" 
	d="
M25.553829,296.897461 
	C24.405169,280.395874 22.777536,263.907928 22.305822,247.387009 
	C22.062584,238.867996 23.875053,230.290283 25.126320,221.054047 
	C27.301474,211.478088 29.108971,202.587204 30.916466,193.696304 
	C30.916466,193.696304 30.883329,193.340454 31.253296,192.968994 
	C32.338341,191.129333 33.153595,189.700729 33.752335,188.186508 
	C37.823605,177.890274 41.816124,167.562836 45.905991,157.274048 
	C47.537018,153.170898 49.350574,149.140305 51.395733,144.955383 
	C53.158360,142.831665 54.744732,140.914124 56.032036,138.813309 
	C65.196213,123.857719 75.760948,110.017403 88.002930,97.417908 
	C100.348007,84.712311 113.732552,73.358849 128.529877,63.565941 
	C150.846329,48.796848 174.942169,38.238022 200.913422,31.968599 
	C226.653290,25.755024 252.742004,23.261814 279.131561,26.125090 
	C288.161987,27.104893 297.057587,29.326916 305.710846,31.187798 
	C295.070007,30.713148 284.728943,30.087788 274.398468,29.320494 
	C270.834747,29.055799 267.060699,28.182800 266.133698,33.146107 
	C264.003235,44.553345 262.204529,56.025375 259.911499,67.398605 
	C257.720215,78.267441 254.278397,88.439804 242.191711,92.485641 
	C240.695938,92.986328 239.341904,94.216316 238.182693,95.370079 
	C223.197479,110.284729 207.984299,124.986389 193.457565,140.336975 
	C188.309830,145.776657 184.835464,152.504517 184.763138,160.889587 
	C184.699158,168.305954 188.689835,173.687149 191.112854,179.926163 
	C192.008942,182.233551 192.392609,185.912704 191.155823,187.633972 
	C188.499725,191.330551 184.815933,194.382385 181.211853,197.272995 
	C178.568130,199.393356 175.640717,199.178040 172.398346,197.421921 
	C166.931519,194.460968 161.559616,190.599243 154.404648,192.301193 
	C152.133194,195.317886 150.141434,198.189682 147.792084,201.110077 
	C144.571060,203.523773 140.971771,205.392715 138.980667,208.345932 
	C132.737961,217.605103 128.552505,227.831909 126.675018,239.133514 
	C125.219536,241.777756 123.300339,244.226868 123.083176,246.818604 
	C121.837616,261.683929 121.058884,276.587677 119.974457,291.467682 
	C119.692451,295.337341 118.778946,299.157440 118.367966,303.022919 
	C118.199425,304.608032 118.272400,306.364471 118.788353,307.851105 
	C120.819283,313.702911 123.258690,319.420471 125.076248,325.332367 
	C125.429764,326.482300 124.025597,329.199493 122.849861,329.640167 
	C101.809364,337.526581 80.259399,343.608398 58.025120,347.088959 
	C53.003296,347.875092 47.958050,348.511627 42.703716,348.926727 
	C40.858974,344.672974 39.250423,340.702698 37.605125,336.747711 
	C35.544060,331.793365 33.452847,326.851532 31.374649,321.904297 
	C31.272905,321.484253 31.171158,321.064178 31.192017,320.081604 
	C30.684263,317.979858 30.053907,316.440613 29.423553,314.901367 
	C29.338800,314.474365 29.254047,314.047333 29.291882,313.111450 
	C29.085567,312.034943 28.756664,311.467285 28.427765,310.899658 
	C27.999750,308.850922 27.571733,306.802216 27.265202,304.181641 
	C27.079145,303.040741 26.771603,302.471680 26.464062,301.902618 
	C26.356813,301.170898 26.249567,300.439148 26.274137,299.159363 
	C26.121914,298.040009 25.837872,297.468719 25.553829,296.897461 
z"/>
<path fill="#558FF0" opacity="1.000000" stroke="none" 
	d="
M42.923584,349.217010 
	C47.958050,348.511627 53.003296,347.875092 58.025120,347.088959 
	C80.259399,343.608398 101.809364,337.526581 122.849861,329.640167 
	C124.025597,329.199493 125.429764,326.482300 125.076248,325.332367 
	C123.258690,319.420471 120.819283,313.702911 118.788353,307.851105 
	C118.272400,306.364471 118.199425,304.608032 118.367966,303.022919 
	C118.778946,299.157440 119.692451,295.337341 119.974457,291.467682 
	C121.058884,276.587677 121.837616,261.683929 123.083176,246.818604 
	C123.300339,244.226868 125.219536,241.777756 126.644875,239.537537 
	C123.112747,257.395782 122.920509,275.145508 126.020729,292.745819 
	C129.345169,311.619080 136.820496,329.140625 147.801407,344.780426 
	C154.146255,353.817291 161.341797,362.728424 169.809402,369.680420 
	C179.733582,377.828278 191.163147,384.324890 202.510071,390.487610 
	C209.088913,394.060699 216.789032,395.569214 224.267578,398.182312 
	C229.505768,403.211914 234.521088,408.006439 239.402649,412.933502 
	C247.643021,421.250641 255.798676,429.651672 264.199097,438.235107 
	C265.265228,438.980225 266.122223,439.507690 267.059082,440.366638 
	C268.363739,442.235352 269.440552,443.924438 270.837280,445.285156 
	C279.962616,454.175446 289.188843,462.962219 298.312897,471.853821 
	C301.730194,475.184021 304.962402,478.704132 308.026337,482.413818 
	C306.396240,483.229584 305.063110,484.001526 303.634674,484.274200 
	C280.461487,488.697540 257.140320,490.433960 233.610168,487.840973 
	C204.230515,484.603424 176.290054,476.532562 149.918320,463.068390 
	C121.655388,448.638641 97.433937,429.218628 77.071266,404.898712 
	C74.366135,401.667877 71.061981,398.938599 68.035233,395.977051 
	C68.035233,395.977051 67.998291,395.999115 68.035049,395.616394 
	C66.405701,393.140991 64.739586,391.048370 63.073463,388.955750 
	C63.073460,388.955750 63.006023,388.983673 63.048302,388.620239 
	C62.421764,387.495850 61.752949,386.734894 61.084129,385.973938 
	C61.084126,385.973938 60.786667,385.835175 60.761406,385.365570 
	C60.198128,384.251617 59.660107,383.607269 59.122086,382.962921 
	C59.122078,382.962921 58.825371,382.808960 58.825619,382.298645 
	C57.894833,380.518494 56.963802,379.248718 56.032768,377.978912 
	C56.032772,377.978912 55.997631,377.998260 56.047501,377.598511 
	C55.322289,375.238983 54.664539,373.222626 53.751408,371.329468 
	C50.185993,363.937469 46.539768,356.584503 42.923584,349.217010 
z"/>
<path fill="#548FEF" opacity="1.000000" stroke="none" 
	d="
M486.970947,210.043472 
	C486.970947,210.043472 487.169678,210.183624 487.109985,210.758453 
	C487.663025,214.551834 488.275726,217.770386 488.888397,220.988937 
	C489.889740,229.660126 491.555939,238.318008 491.729797,247.005753 
	C491.964783,258.749573 491.053528,270.516327 490.368652,282.861877 
	C490.015656,283.676544 490.001526,283.907135 490.060791,284.142212 
	C489.905182,286.219727 489.749573,288.297272 489.320282,290.888550 
	C488.967804,291.570679 488.944946,291.746307 488.978058,291.929169 
	C488.909393,293.012970 488.840759,294.096802 488.441223,295.651245 
	C488.066742,296.745514 488.023071,297.369141 487.979431,297.992798 
	C487.589142,300.389893 487.198853,302.786957 486.416168,305.765717 
	C485.931946,307.180664 485.840088,308.013977 485.748230,308.847260 
	C485.748260,308.847260 485.845886,309.092346 485.389465,309.085754 
	C483.095490,307.699219 481.063141,306.515015 479.450165,304.909485 
	C459.745087,285.295410 440.128448,265.592468 420.409546,245.992432 
	C417.833679,243.432053 414.814484,241.317673 411.825165,238.713654 
	C401.099396,227.621292 390.549072,216.812027 379.767792,205.768280 
	C377.698669,204.019226 375.860535,202.504669 373.936981,200.659470 
	C366.798157,193.082626 359.756592,185.824799 352.659882,178.621231 
	C352.264709,178.220108 351.413879,178.267914 350.493958,177.938568 
	C343.458069,171.572189 336.703339,165.374008 329.746124,158.903107 
	C326.030121,156.059372 322.516663,153.488342 319.134094,150.618439 
	C323.028503,151.257065 327.110992,151.565933 330.481964,153.276733 
	C335.774567,155.962708 340.754547,159.367172 345.548798,162.899200 
	C349.184418,165.577667 352.318146,168.935867 355.688019,171.977341 
	C357.280945,173.415024 358.751526,175.061844 360.544647,176.188980 
	C364.433502,178.633469 369.284210,180.063156 372.291901,183.268234 
	C376.384277,187.629150 379.119110,193.263000 382.443909,198.345856 
	C383.381104,199.778580 384.345703,201.193390 385.297729,202.616425 
	C386.598114,201.277527 388.324371,200.156113 389.135651,198.567459 
	C403.550232,170.341080 414.701385,140.860626 422.712891,110.197586 
	C424.692841,102.619522 424.630249,102.603165 432.289062,104.100784 
	C433.402985,104.130676 434.257477,104.045609 435.111969,103.960541 
	C436.709503,105.718788 438.307037,107.477036 439.788849,109.820610 
	C440.298859,111.963638 440.615265,113.757759 441.597504,115.043022 
	C453.457001,130.561035 463.883698,146.915497 471.583527,164.938995 
	C473.904053,170.370819 476.616791,175.635086 479.149872,180.976105 
	C479.149872,180.976105 479.059479,180.957428 479.048523,181.306610 
	C479.715149,183.436859 480.392761,185.217896 481.070374,186.998932 
	C481.070374,186.998932 481.006165,186.991440 481.006409,187.346924 
	C481.642609,189.485123 482.278534,191.267822 482.914459,193.050537 
	C482.914459,193.050537 483.113708,193.340271 483.077515,193.955215 
	C484.351196,199.727936 485.661072,204.885712 486.970947,210.043472 
z"/>
<path fill="#4D83DD" opacity="1.000000" stroke="none" 
	d="
M412.000610,238.996735 
	C414.814484,241.317673 417.833679,243.432053 420.409546,245.992432 
	C440.128448,265.592468 459.745087,285.295410 479.450165,304.909485 
	C481.063141,306.515015 483.095490,307.699219 485.311371,309.192047 
	C484.750183,313.269135 483.810669,317.233337 482.525635,321.636078 
	C482.067627,322.703979 481.955109,323.333313 481.842590,323.962677 
	C480.551056,328.065094 479.259552,332.167511 477.514526,336.753601 
	C476.619720,337.927795 476.047089,338.567322 475.756195,339.316254 
	C466.765869,362.461456 454.294434,383.586334 438.660950,402.755554 
	C436.906708,400.770538 435.440643,398.949799 433.798889,397.304352 
	C416.965790,380.433472 400.119507,363.575623 383.239258,346.751923 
	C379.232117,342.758209 375.084717,338.905212 370.833160,334.715515 
	C369.443573,332.964325 368.222656,331.485077 367.234650,329.770081 
	C370.268829,326.109283 373.727966,323.032043 375.755127,319.197723 
	C383.646088,304.272247 386.946930,288.037079 387.952301,271.323456 
	C389.338379,248.280472 384.026093,226.530029 374.836700,205.561447 
	C374.232788,204.183380 374.278748,202.520493 374.022430,200.990112 
	C375.860535,202.504669 377.698669,204.019226 379.795258,206.151367 
	C380.762177,208.978790 381.173859,211.342361 382.226227,213.374100 
	C390.501038,229.349747 392.415192,246.768494 393.935638,264.276459 
	C394.106415,266.243103 393.963348,268.283661 393.645691,270.237915 
	C392.234344,278.919922 390.634338,287.571472 389.255920,296.258392 
	C388.701050,299.755280 388.539429,303.314606 388.198853,306.845490 
	C389.759491,306.419708 390.148804,305.880188 390.353394,305.277924 
	C394.197754,293.962921 397.263428,282.526917 398.270203,270.500122 
	C398.650208,265.960846 399.250549,261.158203 404.120667,257.550964 
	C406.896454,255.494934 409.193634,252.060104 412.205139,249.578766 
	C413.477570,248.530396 413.274628,245.399826 413.283173,243.213898 
	C413.288605,241.809875 412.457031,240.402573 412.000610,238.996735 
z"/>
<path fill="#4271BD" opacity="1.000000" stroke="none" 
	d="
M438.867554,403.001190 
	C454.294434,383.586334 466.765869,362.461456 475.756195,339.316254 
	C476.047089,338.567322 476.619720,337.927795 477.355835,337.090698 
	C471.480042,356.243774 461.997772,373.923401 450.421082,390.404297 
	C412.524841,444.354492 360.981964,478.115906 296.026031,488.437592 
	C212.939484,501.640320 141.814743,476.393890 83.560181,415.575989 
	C77.947372,409.716217 73.238892,402.990204 68.072914,396.321686 
	C71.061981,398.938599 74.366135,401.667877 77.071266,404.898712 
	C97.433937,429.218628 121.655388,448.638641 149.918320,463.068390 
	C176.290054,476.532562 204.230515,484.603424 233.610168,487.840973 
	C257.140320,490.433960 280.461487,488.697540 303.634674,484.274200 
	C305.063110,484.001526 306.396240,483.229584 308.421509,482.400757 
	C310.870361,481.866699 312.755249,481.882446 314.458893,481.334625 
	C325.791687,477.690216 337.298340,474.460754 348.342590,470.074432 
	C365.027191,463.447937 380.732635,454.810730 395.180237,444.061523 
	C397.379700,442.425110 399.135620,440.192596 401.445709,438.164948 
	C403.067261,437.358826 404.561157,436.849640 405.578339,435.853607 
	C416.717621,424.946594 427.782471,413.963562 438.867554,403.001190 
z"/>
<path fill="#77A3ED" opacity="1.000000" stroke="none" 
	d="
M435.001343,103.633705 
	C434.257477,104.045609 433.402985,104.130676 432.112823,103.817200 
	C421.295380,93.645973 411.309937,83.399658 400.394409,74.264771 
	C392.943695,68.029518 384.194244,63.346214 375.784912,57.733368 
	C365.077942,52.212910 354.962555,45.994949 344.052032,41.890881 
	C331.746246,37.261978 318.724915,34.535366 306.014801,30.981392 
	C297.057587,29.326916 288.161987,27.104893 279.131561,26.125090 
	C252.742004,23.261814 226.653290,25.755024 200.913422,31.968599 
	C174.942169,38.238022 150.846329,48.796848 128.529877,63.565941 
	C113.732552,73.358849 100.348007,84.712311 88.002930,97.417908 
	C75.760948,110.017403 65.196213,123.857719 56.032036,138.813309 
	C54.744732,140.914124 53.158360,142.831665 51.375694,144.681244 
	C51.020660,144.347076 51.000355,144.165726 50.980045,143.984360 
	C64.319160,118.803993 82.198372,97.335548 103.701454,78.704407 
	C122.155174,62.715355 142.595917,50.030884 165.038986,40.543568 
	C182.581039,33.128048 200.752014,28.009583 219.585724,24.848722 
	C236.860245,21.949537 254.217133,21.210060 271.546753,22.205135 
	C295.004883,23.552118 317.572876,29.696884 339.762146,37.291973 
	C361.868500,44.858692 382.156036,55.904270 400.150269,70.596046 
	C412.440186,80.630371 423.358917,92.344040 435.001343,103.633705 
z"/>
<path fill="#6996E1" opacity="1.000000" stroke="none" 
	d="
M479.109802,180.584229 
	C476.616791,175.635086 473.904053,170.370819 471.583527,164.938995 
	C463.883698,146.915497 453.457001,130.561035 441.597504,115.043022 
	C440.615265,113.757759 440.298859,111.963638 439.866943,110.140511 
	C445.827667,117.870262 451.962891,125.629036 457.279877,133.912964 
	C466.548553,148.353775 473.832550,163.811859 479.109802,180.584229 
z"/>
<path fill="#4271BD" opacity="1.000000" stroke="none" 
	d="
M42.703712,348.926727 
	C46.539768,356.584503 50.185993,363.937469 53.751408,371.329468 
	C54.664539,373.222626 55.322289,375.238983 56.060692,377.582886 
	C49.375263,364.378784 42.572014,350.862793 36.164303,337.161774 
	C34.016418,332.569153 32.876827,327.504974 31.325504,322.280334 
	C33.452847,326.851532 35.544060,331.793365 37.605125,336.747711 
	C39.250423,340.702698 40.858974,344.672974 42.703712,348.926727 
z"/>
<path fill="#6996E1" opacity="1.000000" stroke="none" 
	d="
M50.684654,144.171310 
	C51.000355,144.165726 51.020660,144.347076 51.061001,144.802551 
	C49.350574,149.140305 47.537018,153.170898 45.905991,157.274048 
	C41.816124,167.562836 37.823605,177.890274 33.752335,188.186508 
	C33.153595,189.700729 32.338341,191.129333 31.350548,192.819092 
	C36.837933,178.123566 42.586437,163.201996 48.377556,148.296982 
	C48.908710,146.929916 49.712223,145.668655 50.684654,144.171310 
z"/>
<path fill="#6996E1" opacity="1.000000" stroke="none" 
	d="
M30.628742,193.964584 
	C29.108971,202.587204 27.301474,211.478088 25.299047,220.684570 
	C26.849751,212.077728 28.595383,203.155289 30.628742,193.964584 
z"/>
<path fill="#6996E1" opacity="1.000000" stroke="none" 
	d="
M486.985352,209.621338 
	C485.661072,204.885712 484.351196,199.727936 483.057983,194.129944 
	C484.382996,198.859543 485.691406,204.029373 486.985352,209.621338 
z"/>
<path fill="#4271BD" opacity="1.000000" stroke="none" 
	d="
M63.104057,389.299194 
	C64.739586,391.048370 66.405701,393.140991 68.048538,395.599365 
	C66.395065,393.857574 64.764854,391.750122 63.104057,389.299194 
z"/>
<path fill="#6996E1" opacity="1.000000" stroke="none" 
	d="
M488.936646,220.568466 
	C488.275726,217.770386 487.663025,214.551834 487.062012,210.870178 
	C487.710785,213.654053 488.347839,216.901016 488.936646,220.568466 
z"/>
<path fill="#4271BD" opacity="1.000000" stroke="none" 
	d="
M56.046471,378.317871 
	C56.963802,379.248718 57.894833,380.518494 58.726784,382.163879 
	C57.771858,381.245209 56.916016,379.951019 56.046471,378.317871 
z"/>
<path fill="#4271BD" opacity="1.000000" stroke="none" 
	d="
M29.375347,315.245850 
	C30.053907,316.440613 30.684263,317.979858 31.153271,319.759247 
	C30.436995,318.529724 29.882069,317.060028 29.375347,315.245850 
z"/>
<path fill="#6996E1" opacity="1.000000" stroke="none" 
	d="
M481.043884,186.623993 
	C480.392761,185.217896 479.715149,183.436859 479.058960,181.261658 
	C479.726044,182.661377 480.371735,184.455231 481.043884,186.623993 
z"/>
<path fill="#6996E1" opacity="1.000000" stroke="none" 
	d="
M482.944275,192.674545 
	C482.278534,191.267822 481.642609,189.485123 481.017883,187.316681 
	C481.677399,188.720169 482.325714,190.509369 482.944275,192.674545 
z"/>
<path fill="#4271BD" opacity="1.000000" stroke="none" 
	d="
M61.097637,386.289886 
	C61.752949,386.734894 62.421764,387.495850 63.070290,388.591125 
	C62.403709,388.152222 61.757423,387.379028 61.097637,386.289886 
z"/>
<path fill="#4D83DD" opacity="1.000000" stroke="none" 
	d="
M488.186279,297.797729 
	C488.023071,297.369141 488.066742,296.745514 488.324982,296.041870 
	C488.490753,296.508820 488.441925,297.055756 488.186279,297.797729 
z"/>
<path fill="#4271BD" opacity="1.000000" stroke="none" 
	d="
M482.067261,323.775085 
	C481.955109,323.333313 482.067627,322.703979 482.401489,322.007385 
	C482.512543,322.489258 482.402222,323.038361 482.067261,323.775085 
z"/>
<path fill="#4271BD" opacity="1.000000" stroke="none" 
	d="
M28.360100,311.185638 
	C28.756664,311.467285 29.085567,312.034943 29.280388,312.783875 
	C28.861685,312.467346 28.577061,311.969482 28.360100,311.185638 
z"/>
<path fill="#4D83DD" opacity="1.000000" stroke="none" 
	d="
M485.931091,308.592651 
	C485.840088,308.013977 485.931946,307.180664 486.298645,306.154968 
	C486.420319,306.754364 486.267120,307.546234 485.931091,308.592651 
z"/>
<path fill="#4271BD" opacity="1.000000" stroke="none" 
	d="
M59.133247,383.277344 
	C59.660107,383.607269 60.198128,384.251617 60.663662,385.233765 
	C60.108921,384.911621 59.626667,384.251709 59.133247,383.277344 
z"/>
<path fill="#4271BD" opacity="1.000000" stroke="none" 
	d="
M26.393950,302.183777 
	C26.771603,302.471680 27.079145,303.040741 27.254742,303.788269 
	C26.856476,303.466125 26.590157,302.965515 26.393950,302.183777 
z"/>
<path fill="#4271BD" opacity="1.000000" stroke="none" 
	d="
M25.488235,297.172546 
	C25.837872,297.468719 26.121914,298.040009 26.279051,298.788147 
	C25.908978,298.459198 25.665812,297.953430 25.488235,297.172546 
z"/>
<path fill="#4D83DD" opacity="1.000000" stroke="none" 
	d="
M490.215485,284.013519 
	C490.001526,283.907135 490.015656,283.676544 490.193481,283.301178 
	C490.519867,283.371674 490.548706,283.615997 490.215485,284.013519 
z"/>
<path fill="#4D83DD" opacity="1.000000" stroke="none" 
	d="
M489.124786,291.847931 
	C488.944946,291.746307 488.967804,291.570679 489.122192,291.291626 
	C489.429474,291.350037 489.454071,291.545288 489.124786,291.847931 
z"/>
<path fill="#5A92F0" opacity="1.000000" stroke="none" 
	d="
M305.710846,31.187799 
	C318.724915,34.535366 331.746246,37.261978 344.052032,41.890881 
	C354.962555,45.994949 365.077942,52.212910 375.523651,57.900169 
	C370.393341,56.064163 365.205231,53.987282 360.190704,51.552971 
	C350.281250,46.742443 350.323608,46.661034 348.845551,57.321262 
	C348.754517,57.977703 348.592682,58.626701 348.429169,59.270359 
	C343.527496,78.563362 338.827148,97.911194 333.604095,117.116867 
	C331.784119,123.809242 328.797852,130.202866 326.110046,136.635101 
	C323.894257,141.937744 321.906525,142.621689 316.996429,140.023285 
	C313.353058,138.095215 309.867096,135.872009 306.267761,133.857544 
	C303.859436,132.509659 301.375366,131.297211 298.648376,129.848953 
	C289.677063,121.061157 280.967255,112.463959 272.294159,103.829918 
	C267.523895,99.081161 262.838043,94.247223 258.029846,89.537781 
	C257.695648,89.210464 256.658966,89.600449 255.761078,89.947327 
	C246.828964,98.873268 238.008606,107.433380 229.359726,116.163361 
	C218.608704,127.015160 207.984100,137.992538 197.365372,148.974167 
	C196.699219,149.663071 196.557693,150.859253 195.830276,151.988281 
	C190.989334,159.188126 192.623779,166.006470 196.449875,172.577637 
	C198.743317,176.516541 201.469513,180.203476 204.077576,184.336990 
	C205.612427,186.456741 207.036438,188.272614 208.535004,190.024750 
	C217.806503,200.865082 226.775406,211.990097 236.515121,222.392960 
	C241.232513,227.431564 247.429398,231.300674 255.043137,230.176224 
	C260.090485,229.430801 265.046234,228.065094 270.281982,226.985382 
	C270.520996,226.993713 270.998199,227.026093 270.998657,227.433823 
	C271.727844,230.117340 271.897980,232.836868 273.288330,234.587021 
	C277.740204,240.190918 277.995941,241.327255 272.868805,246.571228 
	C264.653412,254.973770 256.217896,263.161102 248.000977,271.562164 
	C245.426773,274.194061 243.609375,273.853729 240.868866,271.597382 
	C238.718140,269.826630 235.627121,269.197968 232.623871,267.974518 
	C231.717133,267.569885 231.027771,267.365631 230.579895,266.919098 
	C216.743515,253.125031 202.941086,239.296890 189.102539,225.504990 
	C187.163193,223.572189 185.064560,221.799255 182.855713,219.676208 
	C180.369980,217.307755 178.068222,215.215393 175.478973,212.964722 
	C168.355759,205.923035 161.520050,199.039658 154.684326,192.156281 
	C161.559616,190.599243 166.931519,194.460968 172.398346,197.421921 
	C175.640717,199.178040 178.568130,199.393356 181.211853,197.272995 
	C184.815933,194.382385 188.499725,191.330551 191.155823,187.633972 
	C192.392609,185.912704 192.008942,182.233551 191.112854,179.926163 
	C188.689835,173.687149 184.699158,168.305954 184.763138,160.889587 
	C184.835464,152.504517 188.309830,145.776657 193.457565,140.336975 
	C207.984299,124.986389 223.197479,110.284729 238.182693,95.370079 
	C239.341904,94.216316 240.695938,92.986328 242.191711,92.485641 
	C254.278397,88.439804 257.720215,78.267441 259.911499,67.398605 
	C262.204529,56.025375 264.003235,44.553345 266.133698,33.146107 
	C267.060699,28.182800 270.834747,29.055799 274.398468,29.320494 
	C284.728943,30.087788 295.070007,30.713148 305.710846,31.187799 
z"/>
<path fill="#0C0D0E" opacity="1.000000" stroke="none" 
	d="
M154.404648,192.301193 
	C161.520050,199.039658 168.355759,205.923035 175.471619,213.327377 
	C169.432114,228.241837 165.188950,243.108139 165.135071,259.042145 
	C163.179092,259.847748 161.529877,260.562469 159.941010,261.392700 
	C151.928513,265.579529 143.931763,269.796478 135.716873,273.805847 
	C135.394760,273.449707 135.285233,273.290558 135.276978,272.791718 
	C135.213287,271.311035 135.048340,270.170044 134.917572,268.573608 
	C134.605133,261.411804 134.258469,254.705429 134.000336,247.586334 
	C134.182709,245.853973 134.103485,244.494461 134.396881,243.220810 
	C137.727692,228.761124 141.135941,214.321274 148.149658,201.061462 
	C150.141434,198.189682 152.133194,195.317886 154.404648,192.301193 
z"/>
<path fill="#568CE7" opacity="1.000000" stroke="none" 
	d="
M147.792084,201.110077 
	C141.135941,214.321274 137.727692,228.761124 134.396881,243.220810 
	C134.103485,244.494461 134.182709,245.853973 133.676865,247.747711 
	C132.769623,249.506378 131.886963,250.675949 131.840485,251.877853 
	C131.470306,261.448761 130.175690,271.152588 131.278030,280.568237 
	C132.598495,291.847290 135.008469,303.228027 138.725159,313.948120 
	C145.772858,334.275818 158.702606,350.764374 174.562317,365.311340 
	C186.214615,375.999146 199.359222,383.606873 214.292877,389.176697 
	C217.706970,392.246643 220.845764,395.126740 223.984558,398.006805 
	C216.789032,395.569214 209.088913,394.060699 202.510071,390.487610 
	C191.163147,384.324890 179.733582,377.828278 169.809402,369.680420 
	C161.341797,362.728424 154.146255,353.817291 147.801407,344.780426 
	C136.820496,329.140625 129.345169,311.619080 126.020729,292.745819 
	C122.920509,275.145508 123.112747,257.395782 126.967270,239.408295 
	C128.552505,227.831909 132.737961,217.605103 138.980667,208.345932 
	C140.971771,205.392715 144.571060,203.523773 147.792084,201.110077 
z"/>
<path fill="#4E86E3" opacity="1.000000" stroke="none" 
	d="
M401.096680,438.235809 
	C399.135620,440.192596 397.379700,442.425110 395.180237,444.061523 
	C380.732635,454.810730 365.027191,463.447937 348.342590,470.074432 
	C337.298340,474.460754 325.791687,477.690216 314.458893,481.334625 
	C312.755249,481.882446 310.870361,481.866699 308.674133,482.124664 
	C304.962402,478.704132 301.730194,475.184021 298.312897,471.853821 
	C289.188843,462.962219 279.962616,454.175446 270.837280,445.285156 
	C269.440552,443.924438 268.363739,442.235352 267.346161,440.154053 
	C273.857697,435.417511 280.870026,431.980255 286.317749,426.873840 
	C297.353485,416.529419 308.166351,405.804962 317.874817,394.233490 
	C325.194855,385.508728 331.859741,375.493317 325.112335,362.977417 
	C324.967255,362.708313 325.040009,362.321777 325.292694,362.165955 
	C350.379730,387.088806 375.186646,411.834229 399.979187,436.594086 
	C400.439301,437.053619 400.728027,437.684723 401.096680,438.235809 
z"/>
<path fill="#5083D8" opacity="1.000000" stroke="none" 
	d="
M325.011139,361.990021 
	C325.040009,362.321777 324.967255,362.708313 325.112335,362.977417 
	C331.859741,375.493317 325.194855,385.508728 317.874817,394.233490 
	C308.166351,405.804962 297.353485,416.529419 286.317749,426.873840 
	C280.870026,431.980255 273.857697,435.417511 267.266296,439.822601 
	C266.122223,439.507690 265.265228,438.980225 264.451050,437.993744 
	C273.348663,434.276642 279.874512,427.931427 286.230133,421.300476 
	C296.578827,410.503479 307.185577,399.949341 317.371338,389.002350 
	C322.826447,383.139557 322.766357,375.732941 321.010071,368.427582 
	C320.686371,367.081085 318.578888,366.163452 317.333435,364.683044 
	C316.220856,362.616913 315.069550,360.915619 313.908813,358.829987 
	C312.528717,357.324463 311.158051,356.203247 309.530579,354.987457 
	C308.820404,354.337402 308.366974,353.781921 307.909302,352.849945 
	C305.014832,344.144836 297.523468,340.236237 291.234894,335.182739 
	C290.924072,334.932953 290.270813,335.109375 289.504211,334.976318 
	C288.454834,333.995453 287.678223,333.125580 286.900940,331.872314 
	C284.241791,323.493896 278.275482,318.973785 270.442444,315.964630 
	C266.235443,312.011078 262.324280,308.196899 258.413086,304.382690 
	C257.969391,304.549835 257.525696,304.717010 257.082001,304.884155 
	C257.082001,309.592163 257.082001,314.300140 256.751343,319.115601 
	C255.008118,321.565826 253.023422,323.743744 252.292114,326.282745 
	C250.247040,333.382599 248.720352,340.631775 246.569595,347.865784 
	C244.181610,347.687164 242.203537,347.527985 240.246094,347.232300 
	C225.126694,344.948364 212.142746,337.902039 199.788574,328.812439 
	C197.074799,326.040771 194.520905,323.563324 191.954163,320.711243 
	C190.031296,316.496735 188.366974,312.509583 186.169785,308.841675 
	C175.209213,290.544495 173.524521,270.777191 178.664383,250.750000 
	C181.296432,240.494324 183.416916,230.487137 183.039673,219.952316 
	C185.064560,221.799255 187.163193,223.572189 189.102539,225.504990 
	C202.941086,239.296890 216.743515,253.125031 230.579895,266.919098 
	C231.027771,267.365631 231.717133,267.569885 232.712708,268.300415 
	C234.369766,270.253510 235.481323,271.919098 236.866333,273.313019 
	C247.890152,284.407715 258.935974,295.480988 270.036926,306.498474 
	C276.643219,313.055084 283.361328,319.499115 290.200836,326.276978 
	C292.072815,328.360046 293.744019,330.188385 295.478180,331.954987 
	C305.314178,341.974823 315.165222,351.979919 325.011139,361.990021 
z"/>
<path fill="#4B7FD7" opacity="1.000000" stroke="none" 
	d="
M317.294708,365.047882 
	C318.578888,366.163452 320.686371,367.081085 321.010071,368.427582 
	C322.766357,375.732941 322.826447,383.139557 317.371338,389.002350 
	C307.185577,399.949341 296.578827,410.503479 286.230133,421.300476 
	C279.874512,427.931427 273.348663,434.276642 264.241882,437.776093 
	C255.798676,429.651672 247.643021,421.250641 239.402649,412.933502 
	C234.521088,408.006439 229.505768,403.211914 224.267578,398.182312 
	C220.845764,395.126740 217.706970,392.246643 214.295532,388.923828 
	C214.024979,388.312439 214.027084,388.143738 214.421860,388.011047 
	C223.757492,390.005615 232.721588,391.873657 241.635574,393.956207 
	C247.123322,395.238251 250.609314,398.821930 252.039719,404.275482 
	C252.798828,407.169678 253.135956,410.191528 254.092758,413.010071 
	C254.598389,414.499573 256.023926,415.676819 257.132751,417.403503 
	C258.578217,419.438782 254.755020,423.372559 260.008301,423.699646 
	C267.056091,426.921997 272.005798,423.062744 276.302887,418.996033 
	C286.075958,409.746857 295.606262,400.220947 304.860718,390.452698 
	C309.393646,385.668121 313.767242,380.396729 312.989777,372.605438 
	C313.686157,370.749603 314.264313,369.225525 314.987183,367.432800 
	C315.852814,366.458679 316.573761,365.753265 317.294708,365.047882 
z"/>
<path fill="#5891F0" opacity="1.000000" stroke="none" 
	d="
M298.925171,130.024170 
	C301.375366,131.297211 303.859436,132.509659 306.267761,133.857544 
	C309.867096,135.872009 313.353058,138.095215 316.996429,140.023285 
	C321.906525,142.621689 323.894257,141.937744 326.110046,136.635101 
	C328.797852,130.202866 331.784119,123.809242 333.604095,117.116867 
	C338.827148,97.911194 343.527496,78.563362 348.429169,59.270359 
	C348.592682,58.626701 348.754517,57.977703 348.845551,57.321262 
	C350.323608,46.661034 350.281250,46.742443 360.190704,51.552971 
	C365.205231,53.987282 370.393341,56.064163 375.764221,58.135834 
	C384.194244,63.346214 392.943695,68.029518 400.394409,74.264771 
	C411.309937,83.399658 421.295380,93.645973 431.853394,103.702240 
	C424.630249,102.603165 424.692841,102.619522 422.712891,110.197586 
	C414.701385,140.860626 403.550232,170.341080 389.135651,198.567459 
	C388.324371,200.156113 386.598114,201.277527 385.297729,202.616425 
	C384.345703,201.193390 383.381104,199.778580 382.443909,198.345856 
	C379.119110,193.263000 376.384277,187.629150 372.291901,183.268234 
	C369.284210,180.063156 364.433502,178.633469 360.544647,176.188980 
	C358.751526,175.061844 357.280945,173.415024 355.688019,171.977341 
	C352.318146,168.935867 349.184418,165.577667 345.548798,162.899200 
	C340.754547,159.367172 335.774567,155.962708 330.481964,153.276733 
	C327.110992,151.565933 323.028503,151.257065 318.832611,150.580292 
	C317.580902,150.268005 316.761658,149.695023 315.890472,148.777863 
	C314.650726,146.894882 313.581390,145.244217 312.253418,143.837769 
	C307.860962,139.185745 303.375153,134.621857 298.925171,130.024170 
z"/>
<path fill="#050507" opacity="1.000000" stroke="none" 
	d="
M329.948639,159.175827 
	C336.703339,165.374008 343.458069,171.572189 350.593140,178.268311 
	C361.010925,190.708923 369.242004,203.824997 373.620300,218.805954 
	C376.580719,228.935501 377.851440,239.558853 379.750244,250.348862 
	C379.549377,256.837433 379.476196,262.938477 379.270569,269.436340 
	C379.083710,271.219757 379.029297,272.606384 378.790039,274.330627 
	C375.766266,291.592712 370.444733,307.518250 359.381714,323.089813 
	C352.081299,315.298309 345.415771,308.184418 338.663818,300.664795 
	C339.260773,298.215881 339.944153,296.172699 340.866852,293.899414 
	C348.248779,277.435455 350.288544,260.540100 347.692200,242.763351 
	C347.476410,241.990891 347.237671,241.495865 347.028687,240.627121 
	C346.954468,239.513031 346.850494,238.772675 346.749573,237.649567 
	C344.978638,231.767197 343.490173,226.154984 341.374786,220.789917 
	C335.964966,207.069275 326.407043,196.334824 315.895874,185.960373 
	C320.602600,176.757111 325.275635,167.966461 329.948639,159.175827 
z"/>
<path fill="#090A0B" opacity="1.000000" stroke="none" 
	d="
M329.746124,158.903107 
	C325.275635,167.966461 320.602600,176.757111 315.562134,185.853531 
	C300.253937,173.881393 283.153900,167.005173 263.857208,165.573822 
	C257.807922,165.125107 257.518555,165.269714 257.521240,171.138290 
	C257.523041,175.106232 257.740387,179.074081 257.774109,183.501282 
	C257.716675,192.811844 257.746399,201.663086 257.338745,210.592377 
	C256.614807,210.745209 256.328186,210.820007 256.107300,210.898041 
	C256.173004,210.901291 256.100189,210.974503 255.852509,210.709991 
	C255.377762,210.362976 255.150711,210.280457 254.856232,209.861389 
	C252.194687,207.015381 249.600555,204.505936 246.916107,201.671844 
	C240.556198,194.878632 234.286621,188.410049 227.987595,181.560837 
	C228.230377,178.704590 227.725220,175.752350 228.902771,173.831802 
	C235.826889,162.538803 243.044281,151.420258 250.396973,140.399124 
	C252.241211,137.634750 254.944565,135.443527 257.449036,133.298645 
	C260.102661,133.953064 262.560364,134.297699 265.443909,134.736115 
	C270.124573,135.345947 274.395477,135.755508 278.631134,136.397842 
	C291.824554,138.398682 304.037384,143.319260 315.942383,149.122025 
	C316.761658,149.695023 317.580902,150.268005 318.701660,150.879150 
	C322.516663,153.488342 326.030121,156.059372 329.746124,158.903107 
z"/>
<path fill="#4B7DD2" opacity="1.000000" stroke="none" 
	d="
M378.974915,273.993011 
	C379.029297,272.606384 379.083710,271.219757 379.576721,269.224670 
	C379.969513,262.397888 379.923706,256.179626 379.877930,249.961334 
	C377.851440,239.558853 376.580719,228.935501 373.620300,218.805954 
	C369.242004,203.824997 361.010925,190.708923 350.874329,178.436508 
	C351.413879,178.267914 352.264709,178.220108 352.659882,178.621231 
	C359.756592,185.824799 366.798157,193.082626 373.936981,200.659454 
	C374.278748,202.520493 374.232788,204.183380 374.836700,205.561447 
	C384.026093,226.530029 389.338379,248.280472 387.952301,271.323456 
	C386.946930,288.037079 383.646088,304.272247 375.755127,319.197723 
	C373.727966,323.032043 370.268829,326.109283 366.957947,329.602448 
	C365.300812,329.110474 364.153351,328.550354 362.947083,327.676575 
	C362.588043,326.565125 362.287811,325.767395 362.071289,324.641052 
	C365.219330,320.300629 368.793091,316.575806 371.247559,312.220276 
	C377.326904,301.432007 377.921631,289.134064 379.864777,277.243042 
	C380.029480,276.235077 379.292816,275.079834 378.974915,273.993011 
z"/>
<path fill="#4E84DD" opacity="1.000000" stroke="none" 
	d="
M411.825134,238.713654 
	C412.457031,240.402573 413.288605,241.809875 413.283173,243.213898 
	C413.274628,245.399826 413.477570,248.530396 412.205139,249.578766 
	C409.193634,252.060104 406.896454,255.494934 404.120667,257.550964 
	C399.250549,261.158203 398.650208,265.960846 398.270203,270.500122 
	C397.263428,282.526917 394.197754,293.962921 390.353394,305.277924 
	C390.148804,305.880188 389.759491,306.419708 388.198853,306.845490 
	C388.539429,303.314606 388.701050,299.755280 389.255920,296.258392 
	C390.634338,287.571472 392.234344,278.919922 393.645691,270.237915 
	C393.963348,268.283661 394.106415,266.243103 393.935638,264.276459 
	C392.415192,246.768494 390.501038,229.349747 382.226227,213.374100 
	C381.173859,211.342361 380.762177,208.978790 380.026245,206.385864 
	C390.549072,216.812027 401.099396,227.621292 411.825134,238.713654 
z"/>
<path fill="#538EEF" opacity="1.000000" stroke="none" 
	d="
M325.292694,362.165955 
	C315.165222,351.979919 305.314178,341.974823 295.478180,331.954987 
	C293.744019,330.188385 292.072815,328.360046 290.579956,326.306061 
	C291.913879,326.334045 293.045807,326.596130 294.165924,326.901489 
	C301.546143,328.913391 306.887390,333.823425 311.829041,339.314453 
	C313.892822,341.607697 316.435394,343.174316 319.222229,340.958466 
	C322.065216,338.698029 324.618958,336.000275 326.933899,333.192596 
	C327.658752,332.313416 327.653503,330.281769 327.190887,329.083160 
	C326.061859,326.157959 324.687469,323.273926 323.013062,320.625458 
	C320.555756,316.738647 320.529327,312.899078 322.093262,308.740356 
	C324.810547,301.514709 327.378693,294.232941 330.279724,287.142944 
	C331.705139,288.538513 332.860199,289.765839 333.983704,291.390045 
	C333.227905,294.850555 332.523346,297.918976 331.776093,300.976959 
	C328.800140,313.155273 334.104980,322.410187 342.711487,330.042175 
	C350.114624,336.607086 358.482178,340.641205 368.568695,335.410645 
	C369.265533,335.049316 370.185577,335.118530 371.001831,334.987488 
	C375.084717,338.905212 379.232117,342.758209 383.239258,346.751923 
	C400.119507,363.575623 416.965790,380.433472 433.798889,397.304352 
	C435.440643,398.949799 436.906708,400.770538 438.660950,402.755554 
	C427.782471,413.963562 416.717621,424.946594 405.578339,435.853607 
	C404.561157,436.849640 403.067261,437.358826 401.445709,438.164948 
	C400.728027,437.684723 400.439301,437.053619 399.979187,436.594086 
	C375.186646,411.834229 350.379730,387.088806 325.292694,362.165955 
z"/>
<path fill="#4E86E3" opacity="1.000000" stroke="none" 
	d="
M370.833160,334.715515 
	C370.185577,335.118530 369.265533,335.049316 368.568695,335.410645 
	C358.482178,340.641205 350.114624,336.607086 342.711487,330.042175 
	C334.104980,322.410187 328.800140,313.155273 331.776093,300.976959 
	C332.523346,297.918976 333.227905,294.850555 334.273865,291.482849 
	C336.063354,292.126251 337.531067,293.073730 339.405457,294.055908 
	C340.083954,294.103546 340.355743,294.116516 340.627563,294.129517 
	C339.944153,296.172699 339.260773,298.215881 338.517822,300.916046 
	C338.658356,302.690002 338.858429,303.807007 339.042786,305.362671 
	C339.086670,319.834290 347.942993,328.029541 363.005890,327.990234 
	C364.153351,328.550354 365.300812,329.110474 366.725037,329.838196 
	C368.222656,331.485077 369.443573,332.964325 370.833160,334.715515 
z"/>
<path fill="#5790EF" opacity="1.000000" stroke="none" 
	d="
M330.009399,286.974701 
	C327.378693,294.232941 324.810547,301.514709 322.093262,308.740356 
	C320.529327,312.899078 320.555756,316.738647 323.013062,320.625458 
	C324.687469,323.273926 326.061859,326.157959 327.190887,329.083160 
	C327.653503,330.281769 327.658752,332.313416 326.933899,333.192596 
	C324.618958,336.000275 322.065216,338.698029 319.222229,340.958466 
	C316.435394,343.174316 313.892822,341.607697 311.829041,339.314453 
	C306.887390,333.823425 301.546143,328.913391 294.165924,326.901489 
	C293.045807,326.596130 291.913879,326.334045 290.408264,326.022827 
	C283.361328,319.499115 276.643219,313.055084 270.036926,306.498474 
	C258.935974,295.480988 247.890152,284.407715 236.866333,273.313019 
	C235.481323,271.919098 234.369766,270.253510 233.042664,268.387878 
	C235.627121,269.197968 238.718140,269.826630 240.868866,271.597382 
	C243.609375,273.853729 245.426773,274.194061 248.000977,271.562164 
	C256.217896,263.161102 264.653412,254.973770 272.868805,246.571228 
	C277.995941,241.327255 277.740204,240.190918 273.288330,234.587021 
	C271.897980,232.836868 271.727844,230.117340 271.281128,227.605469 
	C279.932190,235.642532 288.417267,243.802307 296.642120,252.216431 
	C307.868347,263.701050 318.896393,275.379395 330.009399,286.974701 
z"/>
<path fill="#4F83D9" opacity="1.000000" stroke="none" 
	d="
M330.279724,287.142944 
	C318.896393,275.379395 307.868347,263.701050 296.642120,252.216431 
	C288.417267,243.802307 279.932190,235.642532 271.280640,227.197754 
	C270.998199,227.026093 270.520996,226.993713 270.166870,226.674774 
	C267.213715,223.898514 264.614655,221.441208 261.891235,218.731110 
	C261.512939,217.975479 261.259003,217.472610 261.188416,216.681686 
	C263.589783,209.880219 266.003632,203.425278 267.971527,196.837128 
	C269.981720,190.107193 272.794159,188.079224 279.609558,189.412582 
	C292.370667,191.909149 303.341278,198.437592 312.854706,206.675430 
	C331.922821,223.186890 341.607025,244.658707 341.834534,269.904480 
	C341.906891,277.934235 340.000000,285.981781 338.998779,294.021210 
	C337.531067,293.073730 336.063354,292.126251 334.305481,291.085999 
	C332.860199,289.765839 331.705139,288.538513 330.279724,287.142944 
z"/>
<path fill="#0D0E0F" opacity="1.000000" stroke="none" 
	d="
M257.253113,132.988892 
	C254.944565,135.443527 252.241211,137.634750 250.396973,140.399124 
	C243.044281,151.420258 235.826889,162.538803 228.902771,173.831802 
	C227.725220,175.752350 228.230377,178.704590 227.686234,181.422943 
	C222.601547,177.126022 217.788742,172.586380 212.837738,167.742264 
	C209.430420,164.306961 206.161301,161.176132 202.848114,157.795639 
	C202.529633,157.366425 202.255219,157.186905 201.897980,156.681122 
	C199.957581,154.813324 198.100006,153.271774 196.202484,151.734894 
	C196.162521,151.739563 196.172089,151.819443 196.172089,151.819443 
	C196.557693,150.859253 196.699219,149.663071 197.365372,148.974167 
	C207.984100,137.992538 218.608704,127.015160 229.359726,116.163361 
	C238.008606,107.433380 246.828964,98.873268 256.182159,90.142792 
	C257.157745,95.366760 257.524384,100.685730 257.779388,106.461990 
	C257.529541,115.609154 257.391327,124.299026 257.253113,132.988892 
z"/>
<path fill="#4F7FCF" opacity="1.000000" stroke="none" 
	d="
M257.891022,106.004692 
	C257.524384,100.685730 257.157745,95.366760 256.370026,89.852333 
	C256.658966,89.600449 257.695648,89.210464 258.029846,89.537781 
	C262.838043,94.247223 267.523895,99.081161 272.294159,103.829918 
	C280.967255,112.463959 289.677063,121.061157 298.648376,129.848953 
	C303.375153,134.621857 307.860962,139.185745 312.253418,143.837769 
	C313.581390,145.244217 314.650726,146.894882 315.890472,148.777863 
	C304.037384,143.319260 291.824554,138.398682 278.631134,136.397842 
	C274.395477,135.755508 270.124573,135.345947 265.442505,134.322693 
	C264.291199,127.426170 263.976990,120.951302 262.668640,114.683960 
	C262.023407,111.593117 259.541718,108.885643 257.891022,106.004692 
z"/>
<path fill="#4A7AC9" opacity="1.000000" stroke="none" 
	d="
M182.855713,219.676208 
	C183.416916,230.487137 181.296432,240.494324 178.664383,250.750000 
	C173.524521,270.777191 175.209213,290.544495 186.169785,308.841675 
	C188.366974,312.509583 190.031296,316.496735 191.643921,320.577698 
	C185.903824,313.350342 179.742172,306.292664 175.186493,298.317596 
	C168.314255,286.287231 165.960571,272.793182 165.469681,259.004547 
	C165.188950,243.108139 169.432114,228.241837 175.759109,213.485687 
	C178.068222,215.215393 180.369980,217.307755 182.855713,219.676208 
z"/>
<path fill="#568CE7" opacity="1.000000" stroke="none" 
	d="
M201.980820,157.007370 
	C202.255219,157.186905 202.529633,157.366425 202.602020,158.054077 
	C199.329941,163.565750 201.932999,167.725494 204.975449,171.204102 
	C212.931671,180.300827 221.095413,189.233627 229.530472,197.886642 
	C233.898987,202.368011 238.868790,206.312927 243.851242,210.129013 
	C247.289597,212.762466 251.215271,212.913147 254.923660,210.197952 
	C255.150711,210.280457 255.377762,210.362976 255.842346,210.672791 
	C256.079865,210.900116 256.057953,210.962097 256.080261,211.276642 
	C256.733948,212.081100 257.365326,212.570999 258.060303,213.375397 
	C259.084290,214.783173 260.044708,215.876465 261.005096,216.969742 
	C261.259003,217.472610 261.512939,217.975479 261.563232,218.893997 
	C251.908951,224.021667 244.449799,222.716370 236.066666,214.518845 
	C227.016708,205.669296 218.175125,196.606903 209.156540,187.724777 
	C207.664108,186.254929 205.730774,185.232742 204.001190,184.003662 
	C201.469513,180.203476 198.743317,176.516541 196.449875,172.577637 
	C192.623779,166.006470 190.989334,159.188126 195.830276,151.988281 
	C196.172089,151.819443 196.162521,151.739563 196.201813,152.096512 
	C198.154343,153.971436 200.067581,155.489410 201.980820,157.007370 
z"/>
<path fill="#5790EF" opacity="1.000000" stroke="none" 
	d="
M204.077576,184.336990 
	C205.730774,185.232742 207.664108,186.254929 209.156540,187.724777 
	C218.175125,196.606903 227.016708,205.669296 236.066666,214.518845 
	C244.449799,222.716370 251.908951,224.021667 261.687561,219.146790 
	C264.614655,221.441208 267.213715,223.898514 269.927887,226.666443 
	C265.046234,228.065094 260.090485,229.430801 255.043137,230.176224 
	C247.429398,231.300674 241.232513,227.431564 236.515121,222.392960 
	C226.775406,211.990097 217.806503,200.865082 208.535004,190.024750 
	C207.036438,188.272614 205.612427,186.456741 204.077576,184.336990 
z"/>
<path fill="#080809" opacity="1.000000" stroke="none" 
	d="
M165.135071,259.042145 
	C165.960571,272.793182 168.314255,286.287231 175.186493,298.317596 
	C179.742172,306.292664 185.903824,313.350342 191.656769,320.952271 
	C194.520905,323.563324 197.074799,326.040771 199.513214,329.010742 
	C192.583725,333.176575 185.841171,336.992676 178.921906,340.455688 
	C175.990295,341.922913 174.589539,343.807831 174.680481,346.902496 
	C168.585739,340.480682 162.803253,334.182617 156.927216,327.590485 
	C155.924850,326.195007 155.016037,325.093597 154.000793,323.657593 
	C151.839752,319.918030 149.785156,316.513062 147.728424,312.794037 
	C147.376373,311.968933 147.026459,311.457855 146.626709,310.663483 
	C146.098099,309.562836 145.619339,308.745544 145.113617,307.552307 
	C142.733017,300.781769 140.379364,294.387177 138.027359,287.663330 
	C137.907242,286.915070 137.785477,286.496033 137.715302,285.757141 
	C137.479752,284.632629 137.192596,283.827972 136.909271,282.621429 
	C136.639206,281.188110 136.365295,280.156677 136.193359,278.863281 
	C136.152420,278.078278 136.009521,277.555206 135.886520,276.652527 
	C135.914108,275.516205 135.921783,274.759521 135.929459,274.002808 
	C143.931763,269.796478 151.928513,265.579529 159.941010,261.392700 
	C161.529877,260.562469 163.179092,259.847748 165.135071,259.042145 
z"/>
<path fill="#5288E1" opacity="1.000000" stroke="none" 
	d="
M136.091385,279.125275 
	C136.365295,280.156677 136.639206,281.188110 136.730591,282.873749 
	C136.428604,284.332886 136.309143,285.137756 135.952759,286.244049 
	C135.559769,287.668701 135.119995,288.836975 135.289932,289.908539 
	C138.154907,307.973145 145.375610,324.217346 155.661469,339.263855 
	C163.928909,351.357788 174.539597,361.195404 185.977463,369.967224 
	C192.163849,374.711639 199.929504,377.396820 207.216599,381.241669 
	C209.643387,383.639923 211.836288,385.807495 214.029175,387.975067 
	C214.027084,388.143738 214.024979,388.312439 214.020233,388.734009 
	C199.359222,383.606873 186.214615,375.999146 174.562317,365.311340 
	C158.702606,350.764374 145.772858,334.275818 138.725159,313.948120 
	C135.008469,303.228027 132.598495,291.847290 131.278030,280.568237 
	C130.175690,271.152588 131.470306,261.448761 131.840485,251.877853 
	C131.886963,250.675949 132.769623,249.506378 133.588333,248.160446 
	C134.258469,254.705429 134.605133,261.411804 134.739136,268.803345 
	C134.742889,270.702820 134.959305,271.917145 135.175720,273.131439 
	C135.285233,273.290558 135.394760,273.449707 135.716873,273.805847 
	C135.921783,274.759521 135.914108,275.516205 135.734879,276.798218 
	C135.739334,277.924072 135.915359,278.524689 136.091385,279.125275 
z"/>
<path fill="#436DB2" opacity="1.000000" stroke="none" 
	d="
M135.276978,272.791718 
	C134.959305,271.917145 134.742889,270.702820 134.704926,269.258789 
	C135.048340,270.170044 135.213287,271.311035 135.276978,272.791718 
z"/>
<path fill="#050507" opacity="1.000000" stroke="none" 
	d="
M174.992752,347.026215 
	C174.589539,343.807831 175.990295,341.922913 178.921906,340.455688 
	C185.841171,336.992676 192.583725,333.176575 199.673096,329.304962 
	C212.142746,337.902039 225.126694,344.948364 240.246094,347.232300 
	C242.203537,347.527985 244.181610,347.687164 246.930466,348.056274 
	C250.769821,348.343567 253.828827,348.484131 257.082001,348.633636 
	C257.082001,338.240326 257.082001,328.624237 257.082001,319.008118 
	C257.082001,314.300140 257.082001,309.592163 257.082001,304.884155 
	C257.525696,304.717010 257.969391,304.549835 258.413086,304.382690 
	C262.324280,308.196899 266.235443,312.011078 270.590698,316.271729 
	C276.323700,321.897339 281.612671,327.076538 286.901611,332.255707 
	C287.678223,333.125580 288.454834,333.995453 289.648346,335.284454 
	C296.014679,341.544525 301.964142,347.385468 307.913574,353.226410 
	C308.366974,353.781921 308.820404,354.337402 309.665894,355.287750 
	C311.344727,356.859833 312.631500,358.037079 313.918274,359.214294 
	C315.069550,360.915619 316.220856,362.616913 317.333435,364.683044 
	C316.573761,365.753265 315.852814,366.458679 314.664276,367.540771 
	C302.623932,379.553040 291.021576,391.159424 279.491364,402.837006 
	C273.914917,408.484680 268.473969,414.266113 262.691345,420.107239 
	C261.513458,421.280212 260.615906,422.332916 259.718353,423.385620 
	C254.755020,423.372559 258.578217,419.438782 257.247620,416.947327 
	C257.211914,409.065063 257.159882,402.047424 257.238403,394.648071 
	C257.384766,390.607269 257.320007,386.945496 257.441406,383.289948 
	C257.541687,380.270111 256.204681,379.327545 253.252319,379.262451 
	C248.278046,379.152740 243.271576,378.866241 238.352921,378.146576 
	C213.919510,374.571686 192.708984,364.329559 174.992752,347.026215 
z"/>
<path fill="#4A7AC9" opacity="1.000000" stroke="none" 
	d="
M256.751343,319.115601 
	C257.082001,328.624237 257.082001,338.240326 257.082001,348.633636 
	C253.828827,348.484131 250.769821,348.343567 247.349945,348.012512 
	C248.720352,340.631775 250.247040,333.382599 252.292114,326.282745 
	C253.023422,323.743744 255.008118,321.565826 256.751343,319.115601 
z"/>
<path fill="#4B7FD7" opacity="1.000000" stroke="none" 
	d="
M307.909302,352.849945 
	C301.964142,347.385468 296.014679,341.544525 289.921143,335.395447 
	C290.270813,335.109375 290.924072,334.932953 291.234894,335.182739 
	C297.523468,340.236237 305.014832,344.144836 307.909302,352.849945 
z"/>
<path fill="#4B7FD7" opacity="1.000000" stroke="none" 
	d="
M286.900940,331.872314 
	C281.612671,327.076538 276.323700,321.897339 270.886505,316.411072 
	C278.275482,318.973785 284.241791,323.493896 286.900940,331.872314 
z"/>
<path fill="#4B7FD7" opacity="1.000000" stroke="none" 
	d="
M313.908813,358.829987 
	C312.631500,358.037079 311.344727,356.859833 309.922668,355.382294 
	C311.158051,356.203247 312.528717,357.324463 313.908813,358.829987 
z"/>
<path fill="#4A7AC9" opacity="1.000000" stroke="none" 
	d="
M257.107849,395.029816 
	C257.159882,402.047424 257.211914,409.065063 257.149048,416.538849 
	C256.023926,415.676819 254.598389,414.499573 254.092758,413.010071 
	C253.135956,410.191528 252.798828,407.169678 252.039719,404.275482 
	C250.609314,398.821930 247.123322,395.238251 241.635574,393.956207 
	C232.721588,391.873657 223.757492,390.005615 214.421875,388.011047 
	C211.836288,385.807495 209.643387,383.639923 207.033173,380.965668 
	C204.086380,377.948761 201.556900,375.438568 199.417084,372.938843 
	C200.623199,373.066589 201.554703,372.968048 202.239105,373.332977 
	C215.261978,380.276276 229.389725,383.268402 243.807632,385.590454 
	C249.405579,386.491974 255.235794,388.296936 257.107849,395.029816 
z"/>
<path fill="#4271BD" opacity="1.000000" stroke="none" 
	d="
M260.008301,423.699646 
	C260.615906,422.332916 261.513458,421.280212 263.053406,420.098633 
	C265.096588,419.171051 266.767181,418.638336 267.857056,417.532990 
	C280.517883,404.692078 293.057678,391.731812 305.719543,378.891937 
	C307.887268,376.693756 310.476837,374.911591 312.871552,372.937225 
	C313.767242,380.396729 309.393646,385.668121 304.860718,390.452698 
	C295.606262,400.220947 286.075958,409.746857 276.302887,418.996033 
	C272.005798,423.062744 267.056091,426.921997 260.008301,423.699646 
z"/>
<path fill="#3E67AB" opacity="1.000000" stroke="none" 
	d="
M312.989777,372.605438 
	C310.476837,374.911591 307.887268,376.693756 305.719543,378.891937 
	C293.057678,391.731812 280.517883,404.692078 267.857056,417.532990 
	C266.767181,418.638336 265.096588,419.171051 263.333740,419.978394 
	C268.473969,414.266113 273.914917,408.484680 279.491364,402.837006 
	C291.021576,391.159424 302.623932,379.553040 314.519562,367.809448 
	C314.264313,369.225525 313.686157,370.749603 312.989777,372.605438 
z"/>
<path fill="#4A7AC9" opacity="1.000000" stroke="none" 
	d="
M261.188416,216.681686 
	C260.044708,215.876465 259.084290,214.783173 258.035095,212.949280 
	C257.889557,211.643906 257.832825,211.079132 257.776123,210.514343 
	C257.746399,201.663086 257.716675,192.811844 258.066986,183.313278 
	C261.566589,178.468979 265.695343,176.940491 270.945221,176.907181 
	C286.310455,176.809677 299.202118,183.127350 311.410828,191.581421 
	C325.794220,201.541397 337.025391,214.027832 343.296448,230.613998 
	C344.258270,233.157928 345.587311,235.563019 346.746552,238.032303 
	C346.850494,238.772675 346.954468,239.513031 346.880066,240.804443 
	C347.024200,241.917267 347.346710,242.479034 347.669189,243.040802 
	C350.288544,260.540100 348.248779,277.435455 340.866852,293.899414 
	C340.355743,294.116516 340.083954,294.103546 339.405457,294.055908 
	C340.000000,285.981781 341.906891,277.934235 341.834534,269.904480 
	C341.607025,244.658707 331.922821,223.186890 312.854706,206.675430 
	C303.341278,198.437592 292.370667,191.909149 279.609558,189.412582 
	C272.794159,188.079224 269.981720,190.107193 267.971527,196.837128 
	C266.003632,203.425278 263.589783,209.880219 261.188416,216.681686 
z"/>
<path fill="#436DB2" opacity="1.000000" stroke="none" 
	d="
M346.749573,237.649567 
	C345.587311,235.563019 344.258270,233.157928 343.296448,230.613998 
	C337.025391,214.027832 325.794220,201.541397 311.410828,191.581421 
	C299.202118,183.127350 286.310455,176.809677 270.945221,176.907181 
	C265.695343,176.940491 261.566589,178.468979 258.154175,182.853973 
	C257.740387,179.074081 257.523041,175.106232 257.521240,171.138290 
	C257.518555,165.269714 257.807922,165.125107 263.857208,165.573822 
	C283.153900,167.005173 300.253937,173.881393 315.528412,186.266159 
	C326.407043,196.334824 335.964966,207.069275 341.374786,220.789917 
	C343.490173,226.154984 344.978638,231.767197 346.749573,237.649567 
z"/>
<path fill="#4271BD" opacity="1.000000" stroke="none" 
	d="
M339.058502,304.923981 
	C338.858429,303.807007 338.658356,302.690002 338.604248,301.321777 
	C345.415771,308.184418 352.081299,315.298309 359.381714,323.089813 
	C370.444733,307.518250 375.766266,291.592712 378.790039,274.330627 
	C379.292816,275.079834 380.029480,276.235077 379.864777,277.243042 
	C377.921631,289.134064 377.326904,301.432007 371.247559,312.220276 
	C368.793091,316.575806 365.219330,320.300629 361.714386,324.616425 
	C359.524078,323.784729 357.555511,322.880951 356.063385,321.472473 
	C350.312469,316.043823 344.713867,310.453827 339.058502,304.923981 
z"/>
<path fill="#4271BD" opacity="1.000000" stroke="none" 
	d="
M379.750244,250.348862 
	C379.923706,256.179626 379.969513,262.397888 379.709167,268.827850 
	C379.476196,262.938477 379.549377,256.837433 379.750244,250.348862 
z"/>
<path fill="#436DB2" opacity="1.000000" stroke="none" 
	d="
M347.692169,242.763367 
	C347.346710,242.479034 347.024200,241.917267 346.850281,241.178162 
	C347.237671,241.495865 347.476410,241.990891 347.692169,242.763367 
z"/>
<path fill="#5083D8" opacity="1.000000" stroke="none" 
	d="
M254.856232,209.861389 
	C251.215271,212.913147 247.289597,212.762466 243.851242,210.129013 
	C238.868790,206.312927 233.898987,202.368011 229.530472,197.886642 
	C221.095413,189.233627 212.931671,180.300827 204.975449,171.204102 
	C201.932999,167.725494 199.329941,163.565750 202.646088,158.303741 
	C206.161301,161.176132 209.430420,164.306961 212.826874,168.101501 
	C213.672440,170.037247 214.155426,171.541275 215.145554,172.545044 
	C224.131699,181.654999 233.162033,190.722946 242.309479,199.670242 
	C243.497223,200.832016 245.422684,201.239563 247.006439,201.996490 
	C249.600555,204.505936 252.194687,207.015381 254.856232,209.861389 
z"/>
<path fill="#4A7AC9" opacity="1.000000" stroke="none" 
	d="
M257.779388,106.461990 
	C259.541718,108.885643 262.023407,111.593117 262.668640,114.683960 
	C263.976990,120.951302 264.291199,127.426170 265.016663,134.228912 
	C262.560364,134.297699 260.102661,133.953064 257.449036,133.298645 
	C257.391327,124.299026 257.529541,115.609154 257.779388,106.461990 
z"/>
<path fill="#436DB2" opacity="1.000000" stroke="none" 
	d="
M246.916107,201.671844 
	C245.422684,201.239563 243.497223,200.832016 242.309479,199.670242 
	C233.162033,190.722946 224.131699,181.654999 215.145554,172.545044 
	C214.155426,171.541275 213.672440,170.037247 212.965088,168.405991 
	C217.788742,172.586380 222.601547,177.126022 227.715698,181.803558 
	C234.286621,188.410049 240.556198,194.878632 246.916107,201.671844 
z"/>
<path fill="#436DB2" opacity="1.000000" stroke="none" 
	d="
M257.338745,210.592377 
	C257.832825,211.079132 257.889557,211.643906 257.971497,212.634796 
	C257.365326,212.570999 256.733948,212.081100 256.069153,211.259644 
	C256.035706,210.928085 256.041595,210.894791 256.041595,210.894791 
	C256.328186,210.820007 256.614807,210.745209 257.338745,210.592377 
z"/>
<path fill="#5083D8" opacity="1.000000" stroke="none" 
	d="
M256.107300,210.898041 
	C256.041595,210.894791 256.035706,210.928085 256.046814,210.945099 
	C256.057953,210.962097 256.079865,210.900116 256.090027,210.937317 
	C256.100189,210.974503 256.173004,210.901291 256.107300,210.898041 
z"/>
<path fill="#4F83D9" opacity="1.000000" stroke="none" 
	d="
M339.042786,305.362671 
	C344.713867,310.453827 350.312469,316.043823 356.063385,321.472473 
	C357.555511,322.880951 359.524078,323.784729 361.630707,324.945007 
	C362.287811,325.767395 362.588043,326.565125 362.947083,327.676575 
	C347.942993,328.029541 339.086670,319.834290 339.042786,305.362671 
z"/>
<path fill="#4A7AC9" opacity="1.000000" stroke="none" 
	d="
M201.897980,156.681122 
	C200.067581,155.489410 198.154343,153.971436 196.241776,152.091858 
	C198.100006,153.271774 199.957581,154.813324 201.897980,156.681122 
z"/>
<path fill="#3E67AB" opacity="1.000000" stroke="none" 
	d="
M257.238403,394.648071 
	C255.235794,388.296936 249.405579,386.491974 243.807632,385.590454 
	C229.389725,383.268402 215.261978,380.276276 202.239105,373.332977 
	C201.554703,372.968048 200.623199,373.066589 199.170441,372.785553 
	C197.752380,372.044739 196.970596,371.467682 196.077774,370.568176 
	C194.721024,368.726715 193.636978,367.030792 192.201584,365.719421 
	C185.998215,360.051788 179.553909,354.641968 173.466309,348.855347 
	C168.461502,344.097961 163.835770,338.941772 159.026672,333.981171 
	C159.011322,334.000000 159.050339,333.962189 158.983978,333.656433 
	C158.284866,332.556305 157.652130,331.761871 157.018341,330.721649 
	C157.017303,330.475830 157.008255,329.984253 157.006516,329.634338 
	C157.010117,328.817810 157.015442,328.351166 157.020767,327.884521 
	C162.803253,334.182617 168.585739,340.480682 174.680481,346.902496 
	C192.708984,364.329559 213.919510,374.571686 238.352921,378.146576 
	C243.271576,378.866241 248.278046,379.152740 253.252319,379.262451 
	C256.204681,379.327545 257.541687,380.270111 257.441406,383.289948 
	C257.320007,386.945496 257.384766,390.607269 257.238403,394.648071 
z"/>
<path fill="#4F83D9" opacity="1.000000" stroke="none" 
	d="
M157.008255,329.984253 
	C157.008255,329.984253 157.017303,330.475830 157.040833,331.057922 
	C157.726349,332.414062 158.388336,333.188110 159.050339,333.962189 
	C159.050339,333.962189 159.011322,334.000000 159.038696,334.354553 
	C159.399033,335.806519 159.499023,337.055573 160.099930,337.978546 
	C168.817093,351.367462 180.774323,361.405060 193.812515,370.293457 
	C194.445953,370.725250 195.389633,370.701965 196.188812,370.890625 
	C196.970596,371.467682 197.752380,372.044739 198.780792,372.775085 
	C201.556900,375.438568 204.086380,377.948761 206.799286,380.734955 
	C199.929504,377.396820 192.163849,374.711639 185.977463,369.967224 
	C174.539597,361.195404 163.928909,351.357788 155.661469,339.263855 
	C145.375610,324.217346 138.154907,307.973145 135.289932,289.908539 
	C135.119995,288.836975 135.559769,287.668701 136.195557,286.277618 
	C136.675278,286.009796 137.166794,286.082886 137.166794,286.082886 
	C137.166794,286.082886 137.663712,286.076996 137.663696,286.076996 
	C137.785477,286.496033 137.907242,286.915070 137.866135,287.944458 
	C139.043350,295.449890 139.841278,302.553070 145.140579,307.928223 
	C145.619339,308.745544 146.098099,309.562836 146.392120,310.750610 
	C146.715134,311.783386 147.222839,312.445740 147.730560,313.108093 
	C149.785156,316.513062 151.839752,319.918030 153.786285,323.886597 
	C154.788254,326.294861 155.898254,328.139557 157.008255,329.984253 
z"/>
<path fill="#436DB2" opacity="1.000000" stroke="none" 
	d="
M145.113617,307.552307 
	C139.841278,302.553070 139.043350,295.449890 137.864487,288.273682 
	C140.379364,294.387177 142.733017,300.781769 145.113617,307.552307 
z"/>
<path fill="#436DB2" opacity="1.000000" stroke="none" 
	d="
M157.006516,329.634338 
	C155.898254,328.139557 154.788254,326.294861 153.892731,324.221161 
	C155.016037,325.093597 155.924850,326.195007 156.927216,327.590485 
	C157.015442,328.351166 157.010117,328.817810 157.006516,329.634338 
z"/>
<path fill="#436DB2" opacity="1.000000" stroke="none" 
	d="
M137.715302,285.757141 
	C137.663712,286.076996 137.166794,286.082886 137.166794,286.082886 
	C137.166794,286.082886 136.675278,286.009796 136.432480,285.976227 
	C136.309143,285.137756 136.428604,284.332886 136.726746,283.275665 
	C137.192596,283.827972 137.479752,284.632629 137.715302,285.757141 
z"/>
<path fill="#436DB2" opacity="1.000000" stroke="none" 
	d="
M147.728424,312.794037 
	C147.222839,312.445740 146.715134,311.783386 146.441986,311.033936 
	C147.026459,311.457855 147.376373,311.968933 147.728424,312.794037 
z"/>
<path fill="#436DB2" opacity="1.000000" stroke="none" 
	d="
M136.193359,278.863281 
	C135.915359,278.524689 135.739334,277.924072 135.714966,277.177826 
	C136.009521,277.555206 136.152420,278.078278 136.193359,278.863281 
z"/>
<path fill="#4B7DD2" opacity="1.000000" stroke="none" 
	d="
M196.077789,370.568146 
	C195.389633,370.701965 194.445953,370.725250 193.812515,370.293457 
	C180.774323,361.405060 168.817093,351.367462 160.099930,337.978546 
	C159.499023,337.055573 159.399033,335.806519 159.054047,334.335724 
	C163.835770,338.941772 168.461502,344.097961 173.466309,348.855347 
	C179.553909,354.641968 185.998215,360.051788 192.201584,365.719421 
	C193.636978,367.030792 194.721024,368.726715 196.077789,370.568146 
z"/>
<path fill="#4B7DD2" opacity="1.000000" stroke="none" 
	d="
M158.983978,333.656433 
	C158.388336,333.188110 157.726349,332.414062 157.041870,331.303711 
	C157.652130,331.761871 158.284866,332.556305 158.983978,333.656433 
z"/>
</svg>